<svg xmlns="http://www.w3.org/2000/svg" xmlns:xlink="http://www.w3.org/1999/xlink" width="200" zoomAndPan="magnify" viewBox="0 0 150 74.999997" height="100" preserveAspectRatio="xMidYMid meet" version="1.0"><defs><g/></defs><rect x="-15" width="180" fill="#ffffff" y="-7.5" height="89.999996" fill-opacity="1"/><rect x="-15" width="180" fill="#f6f3f1" y="-7.5" height="89.999996" fill-opacity="1"/><g fill="#000000" fill-opacity="1"><g transform="translate(33.61813, 39.865779)"><g><path d="M 0.554688 2.921875 L 2.894531 2.921875 L 2.894531 -1.570312 L 2.90625 -1.570312 C 3.449219 -0.445312 4.660156 0.222656 6.132812 0.222656 C 8.414062 0.222656 9.957031 -1.28125 9.957031 -3.558594 C 9.957031 -5.839844 8.414062 -7.355469 6.121094 -7.355469 C 4.644531 -7.355469 3.421875 -6.675781 2.878906 -5.550781 L 2.863281 -5.550781 L 2.546875 -7.121094 L 0.554688 -7.121094 Z M 5.214844 -1.558594 C 3.78125 -1.558594 2.808594 -2.390625 2.808594 -3.558594 C 2.808594 -4.730469 3.78125 -5.5625 5.214844 -5.5625 C 6.648438 -5.5625 7.621094 -4.742188 7.621094 -3.558594 C 7.621094 -2.390625 6.648438 -1.558594 5.214844 -1.558594 Z M 5.214844 -1.558594 "/></g></g></g><g fill="#000000" fill-opacity="1"><g transform="translate(43.908998, 39.865779)"><g><path d="M 1.792969 -8.09375 C 2.601562 -8.09375 3.15625 -8.609375 3.15625 -9.359375 C 3.15625 -10.109375 2.601562 -10.625 1.792969 -10.625 C 0.988281 -10.625 0.429688 -10.109375 0.429688 -9.359375 C 0.429688 -8.609375 0.988281 -8.09375 1.792969 -8.09375 Z M 0.625 0 L 2.949219 0 L 2.949219 -7.121094 L 0.625 -7.121094 Z M 0.625 0 "/></g></g></g><g fill="#000000" fill-opacity="1"><g transform="translate(47.496898, 39.865779)"><g><path d="M 0.0429688 0 L 2.699219 0 L 4.730469 -2.449219 L 6.746094 0 L 9.402344 0 L 6.203125 -3.699219 L 9.289062 -7.121094 L 6.675781 -7.121094 L 4.730469 -4.796875 L 2.753906 -7.121094 L 0.152344 -7.121094 L 3.210938 -3.699219 Z M 0.0429688 0 "/></g></g></g><g fill="#000000" fill-opacity="1"><g transform="translate(56.939464, 39.865779)"><g><path d="M 5.425781 0.265625 C 7.164062 0.265625 8.777344 -0.320312 9.539062 -1.167969 L 8.539062 -2.28125 C 7.957031 -1.710938 6.773438 -1.308594 5.5625 -1.308594 C 4.144531 -1.308594 2.988281 -1.917969 2.78125 -2.949219 L 9.332031 -2.949219 C 9.402344 -3.15625 9.429688 -3.449219 9.429688 -3.671875 C 9.414062 -5.882812 7.636719 -7.386719 4.964844 -7.386719 C 2.226562 -7.386719 0.332031 -5.828125 0.332031 -3.601562 C 0.332031 -1.308594 2.421875 0.265625 5.425781 0.265625 Z M 2.753906 -4.171875 C 2.863281 -5.171875 3.769531 -5.867188 4.9375 -5.867188 C 6.105469 -5.867188 6.980469 -5.214844 7.050781 -4.171875 Z M 2.753906 -4.171875 "/></g></g></g><g fill="#000000" fill-opacity="1"><g transform="translate(66.868764, 39.865779)"><g><path d="M 0.554688 0 L 2.894531 0 L 2.894531 -10.320312 L 0.554688 -10.320312 Z M 0.554688 0 "/></g></g></g><g fill="#000000" fill-opacity="1"><g transform="translate(70.317595, 39.865779)"><g><path d="M 0.554688 2.921875 L 2.894531 2.921875 L 2.894531 -1.570312 L 2.90625 -1.570312 C 3.449219 -0.445312 4.660156 0.222656 6.132812 0.222656 C 8.414062 0.222656 9.957031 -1.28125 9.957031 -3.558594 C 9.957031 -5.839844 8.414062 -7.355469 6.121094 -7.355469 C 4.644531 -7.355469 3.421875 -6.675781 2.878906 -5.550781 L 2.863281 -5.550781 L 2.546875 -7.121094 L 0.554688 -7.121094 Z M 5.214844 -1.558594 C 3.78125 -1.558594 2.808594 -2.390625 2.808594 -3.558594 C 2.808594 -4.730469 3.78125 -5.5625 5.214844 -5.5625 C 6.648438 -5.5625 7.621094 -4.742188 7.621094 -3.558594 C 7.621094 -2.390625 6.648438 -1.558594 5.214844 -1.558594 Z M 5.214844 -1.558594 "/></g></g></g><g fill="#000000" fill-opacity="1"><g transform="translate(80.608464, 39.865779)"><g><path d="M 5.300781 -7.355469 C 4.199219 -7.355469 3.269531 -6.746094 2.808594 -5.742188 L 2.796875 -5.742188 L 2.476562 -7.121094 L 0.554688 -7.121094 L 0.554688 0 L 2.894531 0 L 2.894531 -3.503906 C 2.894531 -4.882812 3.492188 -5.742188 4.492188 -5.742188 C 5.203125 -5.742188 5.6875 -5.160156 5.757812 -4.171875 L 7.816406 -4.660156 C 7.675781 -6.34375 6.703125 -7.355469 5.300781 -7.355469 Z M 5.300781 -7.355469 "/></g></g></g><g fill="#000000" fill-opacity="1"><g transform="translate(88.618651, 39.865779)"><g><path d="M 5.425781 0.265625 C 7.164062 0.265625 8.777344 -0.320312 9.539062 -1.167969 L 8.539062 -2.28125 C 7.957031 -1.710938 6.773438 -1.308594 5.5625 -1.308594 C 4.144531 -1.308594 2.988281 -1.917969 2.78125 -2.949219 L 9.332031 -2.949219 C 9.402344 -3.15625 9.429688 -3.449219 9.429688 -3.671875 C 9.414062 -5.882812 7.636719 -7.386719 4.964844 -7.386719 C 2.226562 -7.386719 0.332031 -5.828125 0.332031 -3.601562 C 0.332031 -1.308594 2.421875 0.265625 5.425781 0.265625 Z M 2.753906 -4.171875 C 2.863281 -5.171875 3.769531 -5.867188 4.9375 -5.867188 C 6.105469 -5.867188 6.980469 -5.214844 7.050781 -4.171875 Z M 2.753906 -4.171875 "/></g></g></g><g fill="#000000" fill-opacity="1"><g transform="translate(98.54795, 39.865779)"><g><path d="M 4.644531 0.25 C 6.980469 0.25 8.679688 -0.640625 8.679688 -2.210938 C 8.679688 -3.503906 7.636719 -4.089844 5.5625 -4.351562 L 4.101562 -4.519531 C 3.171875 -4.660156 2.726562 -4.839844 2.726562 -5.230469 C 2.726562 -5.675781 3.464844 -5.996094 4.421875 -5.996094 C 5.464844 -5.996094 6.425781 -5.578125 6.828125 -4.980469 L 8.121094 -5.714844 C 7.511719 -6.71875 6.105469 -7.371094 4.464844 -7.371094 C 2.28125 -7.371094 0.722656 -6.523438 0.722656 -4.980469 C 0.722656 -3.753906 1.667969 -3.171875 3.558594 -2.960938 L 5.007812 -2.808594 C 6.078125 -2.671875 6.605469 -2.449219 6.605469 -2.03125 C 6.605469 -1.542969 5.839844 -1.210938 4.632812 -1.210938 C 3.269531 -1.210938 2.015625 -1.738281 1.597656 -2.515625 L 0.25 -1.78125 C 0.777344 -0.515625 2.585938 0.25 4.644531 0.25 Z M 4.644531 0.25 "/></g></g></g><g fill="#000000" fill-opacity="1"><g transform="translate(107.462071, 39.865779)"><g><path d="M 4.644531 0.25 C 6.980469 0.25 8.679688 -0.640625 8.679688 -2.210938 C 8.679688 -3.503906 7.636719 -4.089844 5.5625 -4.351562 L 4.101562 -4.519531 C 3.171875 -4.660156 2.726562 -4.839844 2.726562 -5.230469 C 2.726562 -5.675781 3.464844 -5.996094 4.421875 -5.996094 C 5.464844 -5.996094 6.425781 -5.578125 6.828125 -4.980469 L 8.121094 -5.714844 C 7.511719 -6.71875 6.105469 -7.371094 4.464844 -7.371094 C 2.28125 -7.371094 0.722656 -6.523438 0.722656 -4.980469 C 0.722656 -3.753906 1.667969 -3.171875 3.558594 -2.960938 L 5.007812 -2.808594 C 6.078125 -2.671875 6.605469 -2.449219 6.605469 -2.03125 C 6.605469 -1.542969 5.839844 -1.210938 4.632812 -1.210938 C 3.269531 -1.210938 2.015625 -1.738281 1.597656 -2.515625 L 0.25 -1.78125 C 0.777344 -0.515625 2.585938 0.25 4.644531 0.25 Z M 4.644531 0.25 "/></g></g></g><g fill="#de5044" fill-opacity="1"><g transform="translate(95.84875, 43.399839)"><g><path d="M 0.527344 0.457031 L 1 0.867188 L 2.171875 0.269531 L 2.171875 0.273438 L 1.75 1.519531 L 2.226562 1.929688 L 3.867188 1.078125 L 3.433594 0.703125 L 2.269531 1.355469 L 2.265625 1.351562 L 2.703125 0.0703125 L 2.300781 -0.277344 L 1.101562 0.324219 L 1.097656 0.320312 L 1.566406 -0.914062 L 1.132812 -1.292969 Z M 0.527344 0.457031 "/></g></g></g><g fill="#de5044" fill-opacity="1"><g transform="translate(99.040656, 45.927413)"><g><path d="M 1.195312 0.535156 C 1.585938 0.691406 2 0.699219 2.246094 0.578125 L 2.117188 0.238281 C 1.9375 0.316406 1.636719 0.304688 1.363281 0.195312 C 1.046875 0.0703125 0.839844 -0.167969 0.882812 -0.417969 L 2.355469 0.160156 C 2.390625 0.121094 2.421875 0.0546875 2.441406 0.0078125 C 2.632812 -0.492188 2.363281 -0.984375 1.765625 -1.222656 C 1.148438 -1.460938 0.589844 -1.277344 0.390625 -0.78125 C 0.191406 -0.265625 0.519531 0.273438 1.195312 0.535156 Z M 0.984375 -0.695312 C 1.097656 -0.910156 1.363281 -0.984375 1.625 -0.882812 C 1.886719 -0.78125 2.027344 -0.554688 1.949219 -0.316406 Z M 0.984375 -0.695312 "/></g></g></g><g fill="#de5044" fill-opacity="1"><g transform="translate(101.661317, 46.901795)"><g><path d="M 1.464844 0.191406 C 2.015625 0.246094 2.421875 -0.0820312 2.472656 -0.628906 C 2.523438 -1.175781 2.1875 -1.574219 1.640625 -1.625 C 1.285156 -1.660156 0.980469 -1.523438 0.824219 -1.265625 L 0.820312 -1.265625 L 0.929688 -2.410156 L 0.367188 -2.464844 L 0.132812 0.0117188 L 0.609375 0.0585938 L 0.722656 -0.316406 L 0.726562 -0.316406 C 0.832031 -0.0273438 1.109375 0.160156 1.464844 0.191406 Z M 1.289062 -0.253906 C 0.945312 -0.289062 0.730469 -0.511719 0.753906 -0.789062 C 0.78125 -1.070312 1.035156 -1.25 1.378906 -1.21875 C 1.722656 -1.183594 1.9375 -0.960938 1.910156 -0.679688 C 1.882812 -0.402344 1.632812 -0.222656 1.289062 -0.253906 Z M 1.289062 -0.253906 "/></g></g></g><g fill="#de5044" fill-opacity="1"><g transform="translate(104.524204, 47.098868)"><g><path d="M 1.113281 -0.132812 C 1.667969 -0.230469 2.035156 -0.511719 1.972656 -0.882812 C 1.917969 -1.191406 1.644531 -1.285156 1.140625 -1.265625 L 0.789062 -1.242188 C 0.5625 -1.238281 0.449219 -1.261719 0.433594 -1.355469 C 0.414062 -1.460938 0.574219 -1.566406 0.804688 -1.605469 C 1.050781 -1.648438 1.296875 -1.589844 1.417969 -1.464844 L 1.695312 -1.691406 C 1.507812 -1.90625 1.148438 -2.003906 0.757812 -1.9375 C 0.238281 -1.84375 -0.0976562 -1.578125 -0.0351562 -1.214844 C 0.015625 -0.921875 0.265625 -0.824219 0.722656 -0.851562 L 1.074219 -0.875 C 1.332031 -0.886719 1.46875 -0.855469 1.484375 -0.753906 C 1.507812 -0.640625 1.339844 -0.527344 1.050781 -0.480469 C 0.726562 -0.421875 0.40625 -0.496094 0.277344 -0.664062 L -0.015625 -0.433594 C 0.164062 -0.15625 0.625 -0.046875 1.113281 -0.132812 Z M 1.113281 -0.132812 "/></g></g></g><g fill="#de5044" fill-opacity="1"><g transform="translate(106.943776, 46.590016)"><g><path d="M -0.269531 -1.980469 C -0.0859375 -2.046875 -0.00390625 -2.210938 -0.0664062 -2.382812 C -0.128906 -2.550781 -0.296875 -2.621094 -0.480469 -2.554688 C -0.664062 -2.488281 -0.746094 -2.324219 -0.683594 -2.152344 C -0.621094 -1.984375 -0.453125 -1.914062 -0.269531 -1.980469 Z M 0.140625 -0.0507812 L 0.667969 -0.246094 L 0.0742188 -1.855469 L -0.453125 -1.664062 Z M 0.140625 -0.0507812 "/></g></g></g><g fill="#de5044" fill-opacity="1"><g transform="translate(108.068387, 46.197979)"><g><path d="M 1.066406 -0.542969 C 1.34375 -0.707031 1.515625 -0.949219 1.550781 -1.234375 L 1.242188 -1.429688 C 1.222656 -1.230469 1.136719 -1.074219 0.96875 -0.976562 C 0.792969 -0.875 0.628906 -0.914062 0.523438 -1.097656 L 0.199219 -1.652344 L 0.960938 -2.09375 L 0.765625 -2.429688 L 0.00390625 -1.988281 L -0.292969 -2.503906 L -0.722656 -2.121094 L -0.480469 -1.707031 L -0.847656 -1.492188 L -0.652344 -1.15625 L -0.285156 -1.371094 L 0.0898438 -0.730469 C 0.289062 -0.382812 0.660156 -0.308594 1.066406 -0.542969 Z M 1.066406 -0.542969 "/></g></g></g><g fill="#de5044" fill-opacity="1"><g transform="translate(110.117123, 44.982204)"><g><path d="M 0.976562 -0.875 C 1.273438 -1.167969 1.449219 -1.542969 1.4375 -1.816406 L 1.078125 -1.839844 C 1.074219 -1.640625 0.941406 -1.371094 0.730469 -1.167969 C 0.488281 -0.925781 0.1875 -0.835938 -0.0234375 -0.976562 L 1.101562 -2.089844 C 1.078125 -2.136719 1.03125 -2.191406 0.996094 -2.230469 C 0.617188 -2.605469 0.0585938 -2.5625 -0.402344 -2.109375 C -0.871094 -1.644531 -0.929688 -1.054688 -0.554688 -0.675781 C -0.164062 -0.28125 0.460938 -0.363281 0.976562 -0.875 Z M -0.234375 -1.183594 C -0.386719 -1.371094 -0.347656 -1.644531 -0.148438 -1.84375 C 0.0507812 -2.042969 0.3125 -2.078125 0.5 -1.910156 Z M -0.234375 -1.183594 "/></g></g></g></svg>